<?xml version="1.0" standalone="no"?>
<!DOCTYPE svg PUBLIC "-//W3C//DTD SVG 20010904//EN"
 "http://www.w3.org/TR/2001/REC-SVG-20010904/DTD/svg10.dtd">
<svg version="1.0" xmlns="http://www.w3.org/2000/svg"
 width="1534.000000pt" height="2301.000000pt" viewBox="0 0 1534.000000 2301.000000"
 preserveAspectRatio="xMidYMid meet">
<metadata>
Created by potrace 1.15, written by Peter Selinger 2001-2017
</metadata>
<g transform="translate(0.000000,2301.000000) scale(0.100000,-0.100000)"
fill="#000000" stroke="none">
<path d="M0 11505 l0 -11505 3093 0 c2214 0 3096 3 3104 11 8 8 13 8 17 0 9
-14 302 -15 311 -1 3 6 26 10 51 10 24 0 44 -4 44 -10 0 -22 53 -9 80 20 34
37 90 43 90 10 0 -13 -7 -20 -19 -20 -11 0 -23 -4 -26 -10 -4 -6 45 -10 139
-10 l146 0 0 34 c0 48 35 87 79 88 41 1 58 -18 67 -78 4 -28 11 -44 20 -44 11
0 14 16 14 65 l0 65 36 15 c73 30 88 18 100 -83 6 -56 9 -62 29 -62 21 0 22 2
13 28 -17 44 -2 118 30 142 54 43 125 2 108 -63 -6 -24 -11 -27 -46 -27 -33 0
-40 -3 -40 -20 0 -24 32 -27 50 -5 7 8 16 15 21 15 13 0 11 -44 -3 -58 -9 -9
-2 -12 33 -12 l45 0 12 47 c21 92 22 108 7 166 -18 68 -19 87 -5 87 19 0 49
-63 56 -118 5 -38 2 -72 -10 -113 -9 -32 -16 -61 -16 -64 0 -3 218 -5 485 -5
l484 0 26 26 c17 17 34 24 53 22 38 -4 42 -35 5 -41 -15 -2 -2 -5 30 -6 45 -1
57 2 57 14 0 28 47 65 80 65 27 0 34 -5 48 -40 14 -33 22 -40 45 -40 24 0 27
4 27 31 0 22 -5 32 -20 36 -26 7 -26 29 0 36 14 3 20 14 20 31 0 32 12 34 25
4 7 -16 17 -22 33 -20 15 2 22 -2 22 -12 0 -9 -4 -16 -9 -16 -19 0 -41 -32
-41 -61 l0 -29 71 0 71 0 -7 48 c-4 26 -13 51 -21 55 -18 10 -18 27 0 27 8 0
17 13 21 30 8 34 24 40 32 10 3 -13 14 -20 29 -20 15 0 24 -6 24 -15 0 -8 -9
-15 -19 -15 -21 0 -31 -19 -31 -60 0 -52 8 -60 61 -60 27 0 49 4 49 9 0 5 9
11 20 14 17 4 20 14 20 55 0 40 -4 52 -22 65 l-23 15 27 11 c24 9 27 14 22 41
-5 23 -3 30 9 30 12 0 17 -20 22 -100 7 -89 10 -100 26 -100 21 0 26 -26 7
-33 -7 -3 40 -6 105 -6 98 -1 117 1 117 14 0 8 8 15 18 15 10 0 27 7 38 16 18
15 17 15 -13 10 -43 -7 -63 21 -63 90 0 67 21 95 77 100 35 3 42 0 47 -19 11
-43 6 -172 -8 -199 l-15 -28 2825 0 2824 0 0 11505 0 11505 -4296 0 c-3525 0
-4295 -2 -4291 -13 8 -21 -20 -77 -39 -77 -13 0 -15 8 -12 45 l3 45 -67 0
c-57 0 -69 -3 -78 -20 -6 -11 -15 -20 -20 -20 -6 0 -10 9 -10 20 0 20 -7 20
-3265 20 l-3265 0 0 -11505z m4594 11022 c8 -31 13 -37 34 -35 41 5 63 -36 63
-117 0 -37 -4 -72 -10 -78 -11 -11 -17 10 -24 87 -9 98 -58 96 -65 -3 -4 -60
-14 -77 -26 -45 -3 9 -6 65 -6 126 0 83 3 109 13 106 6 -3 16 -21 21 -41z
m546 -112 c0 -19 3 -41 6 -50 6 -14 8 -14 31 0 14 9 31 14 39 11 19 -7 18 -32
-1 -40 -21 -8 -18 -35 10 -81 49 -79 23 -90 -31 -14 -39 53 -54 52 -54 -3 0
-31 -14 -37 -24 -12 -3 9 -6 68 -6 131 0 101 2 114 15 103 8 -7 15 -27 15 -45z
m-305 39 c37 -15 64 -121 28 -110 -37 11 -93 17 -93 9 1 -23 33 -48 63 -48 22
0 33 -5 35 -17 3 -14 -3 -18 -27 -18 -66 0 -111 46 -111 115 0 55 15 75 55 75
18 0 41 -3 50 -6z m1225 -1989 c0 -32 2 -35 30 -35 60 0 76 -74 29 -135 -21
-26 -53 -33 -64 -15 -4 6 -15 8 -26 5 -24 -8 -24 9 -4 125 8 47 15 86 15 88 0
1 5 2 10 2 6 0 10 -16 10 -35z m-873 -216 c7 -13 23 -26 35 -29 13 -3 24 -14
26 -24 3 -14 -2 -17 -25 -14 -24 3 -28 -1 -31 -26 -6 -46 6 -73 33 -80 17 -4
25 -13 25 -27 0 -19 -4 -21 -32 -15 -48 9 -61 28 -66 93 -3 43 -9 62 -25 74
-21 17 -16 39 9 39 8 0 14 9 14 21 0 27 21 20 37 -12z m2493 -124 c-18 -110
-16 -107 -58 -99 -44 8 -62 27 -62 68 0 53 21 81 60 83 19 1 41 2 48 2 6 1 13
13 13 29 1 20 3 22 6 7 3 -11 0 -51 -7 -90z m-2115 45 c34 -13 55 -65 55 -135
l0 -56 -57 6 c-65 7 -93 29 -93 74 0 37 17 51 64 51 31 0 37 3 28 12 -7 7 -28
11 -47 10 -28 -2 -35 1 -35 16 0 10 3 22 7 25 9 10 48 8 78 -3z m196 -34 c26
-11 44 -55 43 -103 -1 -56 -22 -78 -69 -75 -31 2 -35 0 -35 -21 0 -29 -7 -37
-26 -30 -11 4 -14 31 -14 124 l0 119 43 -4 c23 -2 49 -7 58 -10z m184 -39 c35
-30 46 -104 20 -143 -14 -21 -23 -25 -50 -22 -30 3 -34 1 -37 -21 -5 -39 -34
-39 -42 0 -8 42 -8 194 1 202 16 16 83 6 108 -16z m176 -20 c22 -16 39 -51 39
-77 0 -21 -3 -22 -55 -15 -30 3 -55 3 -55 -1 0 -20 36 -44 66 -44 36 0 47 -9
34 -29 -14 -23 -91 -7 -117 24 -27 31 -31 99 -7 133 17 25 68 30 95 9z m171
-28 c22 -12 40 -78 36 -132 l-3 -42 -40 3 c-65 4 -81 10 -95 37 -10 18 -11 33
-4 53 8 23 17 28 53 32 38 4 42 7 29 18 -10 7 -26 10 -41 7 -27 -7 -42 7 -33
32 5 12 14 14 43 8 21 -4 45 -11 55 -16z m553 -139 l0 -115 -45 3 c-25 2 -52
8 -61 13 -32 17 -43 122 -16 157 5 6 25 12 43 12 26 0 34 4 34 18 0 24 10 33
30 30 12 -3 15 -22 15 -118z m-212 88 c32 -16 46 -39 47 -71 l0 -28 -55 6
c-30 4 -55 4 -55 -1 0 -20 36 -44 66 -44 36 0 47 -9 34 -29 -6 -10 -20 -12
-54 -7 -59 9 -86 41 -86 102 0 70 47 102 103 72z m-2180 -326 c11 -10 17 -29
17 -54 0 -29 7 -46 30 -69 31 -33 31 -49 1 -49 -20 0 -31 -26 -31 -72 0 -34
-31 -54 -60 -38 -25 13 -26 36 -1 43 37 9 36 188 -2 218 -24 20 -17 52 10 42
10 -3 26 -13 36 -21z m799 -1302 c14 -17 18 -40 18 -96 l0 -74 -57 4 c-66 6
-87 22 -87 72 0 41 15 54 62 54 17 0 32 5 32 10 0 11 -12 13 -49 10 -29 -2
-44 19 -28 38 17 21 87 9 109 -18z m2955 -100 c-13 -64 -14 -65 -48 -68 -19
-1 -41 2 -49 8 -20 13 -18 91 4 125 14 21 23 25 54 23 33 -3 38 0 42 22 4 21
5 19 7 -10 2 -19 -3 -64 -10 -100z m-2332 -7 c12 -48 25 -66 25 -34 0 32 42
25 51 -9 5 -22 7 -19 15 20 8 35 14 46 32 48 26 4 27 0 3 -98 -20 -85 -44
-104 -62 -51 -12 33 -29 33 -29 0 0 -24 -35 -26 -45 -1 -7 19 -35 148 -35 163
0 6 8 9 18 7 11 -2 21 -18 27 -45z m961 -91 c35 -23 45 -102 18 -140 -19 -28
-44 -28 -78 -1 -22 17 -26 28 -26 73 0 28 5 57 12 64 13 13 57 16 74 4z
m-1665 -93 c1 -5 3 -13 4 -19 1 -5 3 -16 4 -22 0 -7 13 -14 27 -14 53 -4 91
-73 74 -135 -16 -54 -28 -61 -84 -53 -28 3 -54 12 -58 18 -9 13 -11 230 -2
239 8 7 34 -3 35 -14z m714 -195 c7 -27 14 -42 14 -34 3 42 51 50 51 9 0 -35
17 -20 26 24 6 27 15 42 24 42 18 0 17 -51 -1 -128 -10 -41 -15 -48 -33 -45
-13 2 -22 11 -24 26 -4 27 -18 29 -25 2 -3 -11 -14 -20 -25 -20 -16 0 -23 14
-41 87 -18 69 -19 88 -9 94 18 11 27 -1 43 -57z m966 -83 c19 -16 24 -29 24
-69 0 -27 -6 -56 -14 -65 -18 -23 -64 -21 -86 3 -22 24 -31 100 -16 129 15 27
60 28 92 2z m692 -93 c10 -12 17 -37 17 -61 0 -71 -50 -99 -97 -55 -29 27 -33
107 -7 133 21 20 62 13 87 -17z m164 -13 c22 -31 28 -86 11 -114 -12 -21 -21
-26 -51 -24 -35 2 -37 1 -37 -28 0 -18 -4 -28 -10 -24 -6 3 -10 51 -10 109 l0
103 42 -2 c26 -1 46 -9 55 -20z m-2455 -63 c42 -36 43 -150 2 -166 -20 -8 -58
-8 -79 0 -39 15 -61 128 -32 165 24 31 74 32 109 1z m1077 -131 c27 -27 36
-83 19 -118 -17 -37 -74 -45 -102 -14 -22 24 -26 112 -7 135 18 22 67 20 90
-3z m-1149 -230 c0 -3 7 -15 15 -26 15 -19 15 -19 31 3 15 22 48 30 58 14 3
-5 -6 -25 -20 -44 l-26 -36 26 -38 c45 -66 24 -91 -26 -32 l-27 33 -23 -28
c-16 -20 -28 -26 -41 -22 -23 9 -22 20 9 60 l26 34 -26 44 c-14 24 -23 46 -20
49 6 7 44 -2 44 -11z m809 -97 c27 -35 29 -112 3 -144 -15 -19 -25 -22 -54
-16 -47 9 -69 35 -75 90 -8 65 14 96 67 96 30 0 43 -6 59 -26z m514 -35 c27
-12 47 -47 47 -81 0 -19 -5 -20 -55 -16 -59 5 -63 2 -41 -28 10 -13 27 -19 53
-19 27 0 38 -4 38 -15 0 -11 -13 -15 -54 -15 -47 0 -56 4 -74 27 -30 41 -27
106 7 135 30 26 44 28 79 12z m-1311 -284 c9 -27 20 -49 25 -48 4 0 15 21 23
44 9 25 23 45 33 47 20 4 33 -23 19 -41 -5 -6 -15 -30 -22 -52 -12 -41 -35
-98 -49 -125 -13 -24 -60 -37 -71 -20 -15 23 -12 30 15 40 14 5 25 14 25 21 0
6 -13 49 -30 96 -16 46 -30 87 -30 89 0 3 10 4 23 2 17 -2 26 -15 39 -53z
m773 -29 c26 -11 36 -23 44 -54 13 -47 5 -95 -19 -117 -24 -21 -85 -11 -105
18 -23 33 -20 122 5 147 24 24 30 24 75 6z m337 -8 c2 -17 11 -24 31 -26 36
-4 34 -37 -3 -37 -14 0 -25 -6 -24 -13 1 -6 2 -30 3 -51 1 -34 5 -40 32 -50
38 -13 29 -31 -16 -31 -45 0 -65 29 -65 96 0 43 -3 53 -20 57 -11 3 -20 12
-20 21 0 9 8 16 20 16 13 0 20 7 20 20 0 29 38 27 42 -2z m231 -70 c26 -35 26
-111 1 -139 -39 -44 -117 -8 -129 59 -6 39 7 91 28 104 25 17 80 4 100 -24z
m164 0 c21 -16 36 -83 29 -122 -8 -41 -34 -59 -71 -50 -22 5 -25 3 -25 -18 0
-32 -19 -51 -37 -37 -9 8 -13 43 -13 124 0 61 2 114 5 117 9 8 98 -3 112 -14z
m-1426 -614 c16 -14 19 -31 19 -96 l0 -78 -50 0 c-41 0 -56 5 -75 25 -48 47
-21 105 48 105 32 0 38 3 29 12 -7 7 -27 11 -46 10 -39 -3 -54 12 -35 34 17
20 82 13 110 -12z m118 -21 l22 -28 15 23 c18 24 54 30 54 8 0 -7 -9 -25 -20
-39 -25 -32 -25 -36 5 -77 28 -38 32 -60 10 -60 -14 0 -24 9 -50 45 -14 20
-15 19 -38 -10 -20 -24 -28 -28 -46 -20 -22 10 -22 10 9 52 l31 42 -26 40
c-30 49 -30 51 -6 51 11 0 29 -12 40 -27z m782 -43 c27 -15 25 -42 -3 -40 -67
6 -79 -12 -22 -30 42 -14 61 -51 45 -88 -10 -20 -17 -23 -64 -20 -45 3 -52 6
-55 26 -3 23 21 32 33 12 12 -19 45 -11 45 10 0 13 -7 20 -18 20 -27 0 -62 37
-62 65 0 46 53 70 101 45z m187 -30 c12 -12 23 -30 24 -40 0 -11 1 -26 2 -32
1 -9 -14 -12 -51 -10 -42 3 -53 1 -53 -11 0 -24 30 -41 67 -39 28 2 34 0 31
-15 -4 -22 -58 -29 -98 -13 -51 21 -69 116 -30 158 27 28 79 29 108 2z m697
-54 c16 -12 20 -29 23 -95 4 -77 3 -81 -17 -81 -19 0 -21 6 -21 59 0 41 -5 65
-16 75 -25 25 -34 10 -34 -60 0 -56 -2 -64 -19 -64 -10 0 -22 7 -25 16 -8 21
-8 149 1 157 12 12 89 7 108 -7z m196 -33 c12 -33 11 -143 -2 -181 -9 -25 -18
-33 -47 -38 -39 -7 -65 4 -70 30 -3 14 3 17 34 14 23 -2 39 2 41 10 3 8 -6 12
-25 12 -39 0 -63 29 -69 83 -9 74 22 107 93 99 26 -3 38 -11 45 -29z m147 5
c23 -23 14 -41 -18 -35 -43 9 -47 -10 -5 -30 40 -19 53 -51 36 -89 -8 -19 -18
-24 -46 -24 -44 0 -75 15 -75 36 0 13 8 14 40 9 33 -6 40 -4 40 9 0 9 -5 16
-11 16 -6 0 -24 9 -40 21 -52 37 -30 99 35 99 17 0 37 -5 44 -12z m772 -15 c0
-5 7 -17 15 -27 15 -19 15 -19 35 2 22 24 45 28 55 11 4 -6 -4 -31 -16 -55
l-24 -45 28 -49 c32 -60 34 -80 7 -80 -13 0 -28 13 -41 35 -12 19 -24 35 -27
35 -4 0 -15 -14 -24 -30 -20 -34 -58 -42 -58 -11 0 10 12 39 26 65 l26 46 -26
46 c-14 25 -23 50 -20 55 6 11 44 12 44 2z m-429 -22 c21 -17 24 -28 24 -93
l0 -73 -52 -3 c-61 -4 -93 19 -93 67 0 33 15 48 53 53 35 5 31 23 -5 23 -32 0
-42 9 -35 30 9 22 79 20 108 -4z m189 -16 c17 -21 2 -38 -27 -30 -32 8 -53
-10 -53 -44 0 -36 17 -51 58 -51 29 0 33 -3 30 -22 -3 -20 -8 -23 -47 -21 -59
3 -82 27 -89 91 -4 41 -1 53 17 71 25 25 92 29 111 6z m154 -8 c28 -20 15 -41
-25 -41 -32 -1 -34 -3 -37 -38 -2 -28 1 -39 17 -47 11 -6 26 -8 34 -6 17 7 41
-20 32 -35 -9 -15 -78 -12 -102 5 -46 32 -49 129 -6 163 22 16 64 15 87 -1z
m-2813 -136 c21 -17 24 -30 27 -99 l4 -80 -63 5 c-71 6 -89 19 -89 68 0 41 16
55 62 55 39 0 51 13 22 24 -8 3 -26 3 -39 0 -25 -6 -40 9 -31 31 8 22 79 19
107 -4z m95 1 c7 -4 17 -25 23 -47 19 -69 26 -71 47 -14 20 54 30 64 52 51 10
-7 7 -24 -13 -78 -14 -38 -30 -77 -35 -86 -6 -10 -10 -24 -10 -31 0 -16 -27
-41 -52 -50 -12 -4 -21 1 -29 14 -9 17 -7 21 10 26 33 9 34 37 2 120 -17 43
-31 84 -31 91 0 13 19 16 36 4z m804 -65 c40 -20 32 -43 -12 -39 -48 4 -49
-13 -3 -32 55 -23 68 -88 21 -105 -31 -12 -94 -1 -101 17 -9 23 10 36 32 21
21 -13 53 -7 53 11 0 5 -15 16 -34 24 -32 13 -56 41 -56 65 0 17 38 51 58 51
9 0 28 -6 42 -13z m500 -11 c5 -14 19 -26 32 -28 35 -5 36 -36 1 -40 -21 -2
-29 -9 -31 -27 -6 -39 7 -69 35 -83 36 -17 35 -32 -2 -35 -48 -4 -68 18 -73
84 -3 41 -10 62 -23 71 -23 16 -25 32 -4 32 9 0 20 11 25 25 12 32 28 32 40 1z
m-305 -21 c16 -15 25 -36 25 -54 l0 -30 -55 6 c-45 5 -55 3 -55 -9 0 -26 30
-42 72 -39 33 2 39 -1 36 -16 -2 -14 -14 -19 -51 -21 -39 -3 -51 1 -72 22 -33
33 -36 115 -5 146 28 28 75 26 105 -5z m707 -52 c7 -9 12 -46 13 -91 0 -70 -2
-77 -20 -77 -18 0 -20 8 -23 68 -2 50 -7 70 -18 74 -24 9 -34 -15 -34 -80 0
-50 -2 -58 -17 -55 -15 3 -18 16 -21 82 -2 44 -1 84 1 90 6 16 104 7 119 -11z
m151 1 l37 -7 0 -103 c0 -80 -3 -106 -16 -118 -25 -26 -61 -30 -90 -11 -35 23
-26 41 19 37 22 -2 37 1 37 7 0 6 -9 11 -19 11 -11 0 -32 10 -46 23 -49 41
-30 167 24 167 9 0 33 -3 54 -6z m171 -14 c39 -15 33 -40 -9 -40 -44 0 -45
-12 0 -33 39 -18 53 -53 35 -87 -10 -18 -19 -21 -63 -18 -45 3 -52 6 -55 26
-3 21 -1 22 37 16 52 -8 54 8 4 33 -39 19 -49 38 -39 78 8 32 46 42 90 25z
m791 -40 c19 -37 28 -38 43 -5 8 17 20 25 37 25 31 0 32 -17 3 -67 -14 -23
-25 -61 -28 -98 -4 -48 -9 -60 -24 -63 -25 -5 -36 14 -36 68 0 31 -10 62 -30
99 -36 66 -37 71 -5 71 17 0 29 -9 40 -30z m-450 8 c26 -12 29 -20 39 -93 10
-72 1 -85 -57 -85 -61 0 -87 20 -87 65 0 38 16 55 51 55 15 0 31 5 34 10 7 11
-5 13 -44 10 -28 -2 -44 19 -29 37 13 16 59 17 93 1z m203 -37 c3 -20 0 -22
-35 -19 -33 3 -38 0 -41 -21 -2 -12 -1 -34 2 -47 5 -19 13 -24 41 -24 40 0 54
-16 32 -37 -22 -22 -81 -9 -107 24 -26 34 -28 113 -2 135 37 33 105 27 110
-11z m157 5 c29 -21 13 -47 -26 -39 -34 6 -49 -6 -49 -43 0 -27 26 -49 59 -49
19 0 26 -5 26 -20 0 -16 -8 -21 -40 -23 -53 -4 -85 28 -92 90 -4 34 0 49 17
71 24 30 73 37 105 13z m-2717 -88 c7 -7 12 -25 12 -40 0 -25 3 -28 23 -23 15
4 32 -1 48 -13 21 -18 24 -30 27 -101 4 -77 3 -81 -17 -81 -19 0 -21 6 -21 63
0 70 -9 91 -36 85 -16 -3 -19 -14 -22 -71 -3 -59 -5 -67 -22 -67 -19 0 -20 8
-20 130 0 72 4 130 8 130 4 0 13 -5 20 -12z m-143 -25 c5 -12 22 -24 37 -27
15 -3 28 -12 28 -20 0 -17 -24 -28 -45 -20 -12 5 -15 -4 -15 -50 0 -55 1 -57
30 -63 46 -9 36 -39 -10 -35 -49 4 -61 20 -67 90 -5 49 -9 61 -25 65 -22 6
-21 44 0 39 7 -1 17 10 22 24 11 29 30 28 45 -3z m1821 -173 c24 0 24 -1 24
-99 0 -77 -4 -103 -16 -115 -20 -20 -55 -20 -80 -1 -18 15 -17 16 14 10 35 -7
62 7 62 32 0 11 -7 13 -28 8 -21 -4 -33 0 -49 17 -53 59 -28 170 35 152 8 -2
25 -4 38 -4z m-1668 -208 c3 -28 7 -31 40 -34 48 -4 66 -39 67 -128 0 -58 -2
-65 -20 -65 -18 0 -20 8 -23 67 -2 55 -7 70 -23 78 -16 9 -21 7 -29 -15 -6
-15 -10 -49 -10 -76 0 -43 -3 -50 -17 -47 -16 3 -18 18 -21 118 -1 62 0 120 3
128 9 23 30 7 33 -26z m-222 -20 c6 -4 15 -27 21 -52 9 -39 12 -42 18 -22 9
28 35 25 51 -6 10 -20 12 -21 18 -7 3 9 6 27 6 40 0 28 21 47 40 35 11 -7 11
-22 -5 -94 -16 -77 -20 -86 -40 -86 -16 0 -25 8 -29 25 -7 29 -26 24 -26 -6 0
-15 -6 -20 -22 -17 -20 3 -26 15 -45 92 -24 100 -22 122 13 98z m928 -78 c3
-9 6 -26 6 -39 0 -28 15 -41 24 -20 9 23 43 18 51 -7 7 -26 11 -20 20 35 5 29
10 37 27 37 22 0 22 -6 -4 -127 -13 -63 -39 -72 -58 -20 l-12 32 -9 -32 c-7
-22 -16 -33 -28 -33 -16 0 -23 16 -40 91 -12 50 -21 92 -21 95 0 12 39 2 44
-12z m988 -70 c5 -3 8 -45 8 -95 0 -76 -3 -92 -20 -109 -20 -20 -45 -25 -74
-14 -26 10 -18 27 8 20 35 -9 56 3 56 30 0 22 -3 23 -20 14 -59 -32 -111 99
-59 151 17 17 28 20 57 14 20 -4 40 -9 44 -11z m-1842 -208 c6 -17 18 -26 37
-28 41 -4 45 -38 5 -38 -36 0 -38 -6 -34 -66 4 -40 7 -45 33 -51 28 -5 41 -32
17 -34 -70 -6 -98 21 -98 96 0 45 -3 53 -21 58 -24 6 -23 42 1 42 8 0 16 10
18 23 4 29 30 28 42 -2z m134 -71 c5 -17 11 -37 13 -45 4 -11 7 -9 14 8 9 24
10 25 33 16 9 -3 16 -15 16 -25 0 -36 17 -19 23 22 6 47 16 62 35 50 11 -7 11
-24 -4 -95 -15 -78 -19 -86 -40 -86 -17 0 -24 7 -30 33 l-7 32 -9 -33 c-7 -26
-13 -33 -30 -30 -18 2 -25 16 -40 73 -10 39 -18 80 -18 93 0 34 32 24 44 -13z
m786 11 c0 -19 6 -25 28 -28 16 -2 27 -9 27 -18 0 -9 -11 -16 -27 -18 -26 -3
-28 -6 -28 -52 0 -44 2 -49 30 -59 17 -6 30 -17 30 -27 0 -14 -7 -16 -37 -11
-49 8 -63 29 -63 94 0 42 -4 55 -17 60 -37 13 -38 43 -2 43 12 0 19 7 19 20 0
13 7 20 20 20 15 0 20 -7 20 -24z m760 -136 c0 -110 -7 -139 -26 -109 -5 8 -8
8 -13 0 -5 -8 -16 -8 -39 0 -25 8 -34 19 -42 50 -20 73 5 122 59 117 35 -3 36
-2 33 30 -1 23 2 32 13 32 13 0 15 -20 15 -120z m-1724 -265 c11 -47 12 -48
19 -22 9 33 34 33 51 -1 l11 -23 7 23 c3 13 6 33 6 44 0 45 76 41 86 -5 3 -14
9 -35 14 -46 7 -17 9 -17 9 -2 1 9 3 17 5 17 2 0 11 3 20 6 11 4 19 -3 27 -22
l12 -29 12 48 c16 59 21 65 40 46 15 -14 12 -41 -16 -145 -9 -34 -15 -41 -30
-37 -11 3 -22 16 -25 29 -8 31 -20 31 -28 -1 -4 -16 -13 -25 -26 -25 -19 0
-21 5 -45 105 l-7 30 -13 -35 c-8 -19 -14 -47 -14 -61 -1 -15 -8 -29 -16 -33
-17 -6 -45 19 -45 40 0 8 -4 12 -10 9 -5 -3 -10 -15 -10 -26 0 -13 -7 -19 -24
-19 -21 0 -26 8 -45 85 -26 105 -26 107 1 103 18 -2 25 -13 34 -53z m1734
-105 c0 -116 -4 -132 -27 -109 -7 7 -13 7 -17 1 -9 -15 -55 -1 -71 21 -20 28
-19 97 1 126 14 19 23 22 50 18 33 -6 34 -5 34 29 0 24 5 34 15 34 13 0 15
-20 15 -120z m-825 85 c17 -85 16 -82 26 -57 9 25 49 31 49 7 0 -31 18 -13 24
24 6 42 21 60 38 43 6 -6 4 -38 -6 -92 -9 -45 -16 -84 -16 -86 0 -12 -41 -2
-45 11 -16 49 -17 50 -27 18 -9 -33 -30 -43 -44 -21 -11 18 -43 161 -38 170
11 17 34 7 39 -17z m-995 -615 c0 -6 -7 -25 -16 -42 -21 -41 -21 -142 0 -190
21 -49 20 -58 -5 -58 -14 0 -26 13 -41 47 -41 93 -17 253 39 253 12 0 23 -5
23 -10z m1028 -87 c3 -29 6 -32 30 -27 50 10 66 -14 70 -105 4 -76 3 -81 -16
-81 -19 0 -21 7 -24 67 -3 57 -6 68 -22 71 -27 5 -36 -15 -36 -80 0 -51 -2
-58 -20 -58 -19 0 -20 7 -20 126 0 114 2 125 18 122 11 -2 18 -14 20 -35z
m-146 5 c2 -17 11 -24 31 -26 19 -2 27 -9 27 -23 0 -15 -7 -19 -31 -19 -30 0
-30 -1 -27 -47 3 -41 7 -50 31 -61 38 -18 35 -42 -5 -42 -50 0 -68 24 -68 90
0 49 -3 58 -20 63 -11 3 -20 13 -20 22 0 9 9 19 20 22 11 3 20 14 20 24 0 28
38 25 42 -3z m-780 -8 c4 -8 16 -33 24 -55 18 -43 15 -46 44 33 14 36 50 46
50 13 0 -20 -58 -184 -76 -214 -5 -10 -23 -19 -40 -20 -23 -2 -30 2 -32 21 -2
14 2 22 12 22 33 0 35 33 5 110 -33 86 -36 113 -13 108 9 -2 21 -10 26 -18z
m2676 -67 c2 -23 8 -32 20 -31 39 3 52 -3 67 -32 20 -38 19 -109 -1 -139 -14
-20 -22 -22 -68 -17 -28 3 -52 5 -52 6 -6 2 -14 231 -9 240 14 22 40 5 43 -27z
m-963 -8 c22 -21 25 -33 25 -95 l0 -70 -59 0 c-51 0 -62 3 -75 22 -9 12 -16
30 -16 40 0 28 37 58 70 58 31 0 41 14 17 23 -7 3 -25 3 -39 0 -30 -6 -45 12
-28 32 20 24 77 19 105 -10z m1349 19 c27 -10 20 -44 -9 -44 -31 0 -32 -19 -2
-65 23 -37 37 -44 37 -21 0 9 12 16 28 18 25 3 27 6 24 39 -4 44 17 69 57 69
31 0 57 -23 46 -40 -3 -5 -17 -10 -31 -10 -29 0 -30 -2 -2 -51 21 -37 38 -50
38 -29 0 6 9 10 20 10 18 0 20 -7 20 -65 l0 -65 -58 0 c-35 0 -66 6 -79 15
-16 11 -22 12 -25 3 -5 -14 -112 -12 -139 3 -29 15 -38 60 -23 105 8 21 14 56
14 76 0 48 36 70 84 52z m-1258 -21 c3 -10 13 -36 23 -58 l18 -40 13 45 c16
55 35 79 51 63 17 -17 -45 -201 -77 -230 -30 -27 -42 -29 -51 -6 -4 11 1 22
15 31 28 19 28 26 -8 118 -16 42 -27 81 -24 85 9 15 36 10 40 -8z m-878 -291
c3 -29 6 -32 37 -32 48 0 75 -37 75 -103 0 -69 -18 -87 -85 -87 l-52 0 -7 120
c-4 67 -4 125 0 131 11 19 29 3 32 -29z m-908 -54 c8 -27 19 -47 24 -45 5 2
17 23 26 47 17 44 42 62 55 40 4 -6 -12 -63 -36 -126 -35 -94 -46 -115 -66
-120 -12 -4 -30 -4 -38 0 -19 7 -20 36 -1 36 7 0 19 7 26 15 10 12 7 31 -19
101 -37 103 -37 106 -8 102 17 -2 26 -15 37 -50z m1800 19 c0 -31 2 -33 28
-30 50 8 65 -15 70 -106 4 -77 4 -81 -17 -81 -18 0 -21 6 -21 48 0 65 -9 92
-30 92 -23 0 -30 -20 -30 -87 0 -46 -3 -54 -17 -51 -16 3 -18 18 -21 126 -2
117 -2 122 18 122 16 0 20 -6 20 -33z m1264 -27 c16 -15 -2 -42 -23 -35 -31
10 -33 -11 -6 -55 23 -36 28 -40 42 -28 9 7 23 13 32 13 12 0 17 13 22 48 6
54 20 68 64 65 23 -2 31 -9 33 -25 3 -19 -1 -23 -22 -23 -33 0 -33 -16 1 -65
22 -31 28 -36 31 -22 2 11 11 17 20 15 14 -3 17 -16 18 -66 l1 -62 -62 0 c-33
0 -66 5 -72 11 -7 7 -17 8 -25 3 -7 -5 -37 -10 -67 -11 -47 -2 -57 1 -82 27
-33 33 -35 46 -14 98 9 20 13 47 10 60 -8 32 37 76 68 66 12 -3 26 -10 31 -14z
m-1470 -6 c9 -8 16 -28 16 -44 0 -34 16 -48 23 -20 3 11 13 20 22 20 9 0 19
-9 22 -20 8 -29 19 -16 27 30 4 25 12 40 21 40 23 0 24 -11 7 -100 -13 -64
-21 -86 -34 -88 -12 -2 -22 7 -31 30 l-14 33 -7 -28 c-5 -22 -12 -28 -28 -25
-18 3 -24 16 -40 87 -21 98 -17 118 16 85z m956 -29 c35 -18 42 -41 38 -120
l-3 -60 -52 -3 c-42 -2 -57 2 -73 18 -42 42 -11 110 51 110 19 0 28 4 24 11
-4 6 -23 9 -43 7 -29 -2 -37 1 -40 15 -2 10 5 21 20 26 33 14 45 13 78 -4z
m120 -42 c22 -59 26 -60 42 -11 11 31 21 44 36 46 29 4 28 -5 -9 -117 -31 -93
-56 -131 -84 -131 -26 0 -29 30 -6 51 11 11 21 22 21 24 0 2 -14 40 -30 85
-17 45 -27 86 -24 91 13 21 39 2 54 -38z m-1898 -245 c2 -17 11 -24 31 -26 38
-5 33 -36 -6 -40 -27 -3 -28 -6 -25 -50 3 -40 7 -49 31 -60 15 -7 27 -20 27
-29 0 -12 -7 -14 -37 -10 -49 8 -63 29 -63 94 0 48 -3 55 -25 63 -29 11 -24
40 6 40 12 0 19 7 19 20 0 29 38 27 42 -2z m-764 -25 l20 -28 22 28 c23 30 28
31 49 18 12 -8 10 -16 -13 -50 l-28 -40 31 -44 c16 -24 27 -47 24 -51 -14 -14
-43 -4 -62 22 l-20 27 -26 -27 c-51 -55 -81 -27 -36 33 l30 42 -25 36 c-13 19
-24 41 -24 48 0 23 38 14 58 -14z m890 -38 c2 -17 5 -37 8 -45 5 -13 7 -12 15
3 14 24 45 21 54 -5 6 -20 8 -16 16 21 10 52 24 70 40 54 9 -9 7 -33 -6 -97
-14 -68 -22 -86 -36 -86 -10 0 -22 13 -29 33 l-12 32 -9 -32 c-7 -22 -16 -33
-28 -33 -16 0 -23 16 -39 87 -11 48 -18 91 -15 96 11 19 38 1 41 -28z m2170
23 c21 -21 13 -38 -18 -38 -37 0 -37 -9 -4 -60 22 -33 29 -38 38 -26 6 8 20
16 31 18 16 2 21 13 25 50 7 54 7 54 40 63 32 8 66 -15 57 -40 -5 -10 -13 -15
-22 -11 -26 10 -28 -21 -4 -60 20 -32 24 -35 34 -20 29 38 44 12 41 -69 l-2
-50 -55 -2 c-33 -1 -62 4 -76 13 -14 8 -24 10 -28 4 -3 -6 -35 -10 -70 -10
-57 0 -66 3 -84 26 -24 31 -26 68 -7 104 8 13 12 38 9 55 -3 21 0 37 12 48 19
20 66 22 83 5z m-1358 -28 c16 -16 20 -33 20 -85 0 -36 0 -68 0 -72 0 -13
-111 -15 -126 -2 -16 13 -18 62 -4 90 8 13 21 19 45 19 26 0 35 4 35 16 0 14
-7 16 -40 11 -33 -4 -40 -2 -40 12 0 26 9 31 52 31 25 0 45 -7 58 -20z m101
-11 l22 -31 16 26 c15 24 40 34 54 20 3 -3 -5 -23 -18 -44 l-24 -38 29 -43
c16 -24 26 -47 24 -51 -10 -17 -34 -7 -56 23 l-23 30 -21 -26 c-14 -17 -29
-26 -43 -23 -21 3 -20 4 9 48 l29 44 -25 34 c-24 31 -27 62 -5 62 5 0 20 -14
32 -31z m938 -25 c17 -21 21 -41 21 -95 l0 -69 -59 0 c-62 0 -75 8 -86 51 -8
33 21 70 58 72 15 1 27 8 27 16 0 10 -9 12 -34 7 -21 -4 -37 -2 -41 4 -12 19
17 40 55 40 30 0 43 -6 59 -26z m517 -285 c4 -7 -2 -19 -14 -28 -33 -26 -35
-178 -2 -211 28 -28 26 -50 -4 -50 -33 0 -56 25 -56 61 0 38 -16 69 -35 69
-22 0 -18 37 3 42 14 4 20 18 25 57 3 28 9 56 12 61 8 14 62 13 71 -1z m-3251
-26 l18 -26 19 26 c20 28 58 37 58 14 0 -7 -11 -28 -25 -46 l-24 -34 30 -43
c46 -63 14 -94 -34 -33 l-25 32 -17 -27 c-11 -16 -26 -26 -41 -26 -31 0 -30
15 1 56 14 18 25 35 25 39 0 3 -11 23 -25 43 -31 45 -31 52 -1 52 15 0 30 -10
41 -27z m994 -19 c17 -21 21 -41 21 -95 l0 -69 -63 0 c-73 0 -87 10 -87 60 0
46 15 60 63 60 27 0 37 4 34 13 -2 7 -21 12 -46 11 -32 -1 -41 3 -41 16 0 25
9 30 56 30 34 0 47 -5 63 -26z m599 4 c7 -7 12 -23 12 -37 0 -15 4 -32 9 -40
7 -11 10 -9 16 8 8 27 45 29 45 1 0 -11 5 -20 10 -20 6 0 10 10 10 23 0 49 11
67 41 67 17 0 31 -6 33 -12 2 -7 8 -29 14 -48 9 -32 11 -33 17 -12 9 27 35 29
42 2 8 -32 20 -23 27 19 7 43 22 59 38 43 8 -8 5 -36 -7 -96 -14 -68 -22 -86
-36 -86 -10 0 -22 13 -29 33 l-12 32 -10 -33 c-14 -52 -38 -38 -58 33 -18 63
-21 61 -35 -17 -8 -50 -41 -53 -57 -5 l-12 32 -8 -32 c-10 -39 -43 -46 -51
-10 -33 132 -37 167 -18 167 4 0 12 -5 19 -12z m966 -29 c25 -20 27 -25 24
-96 l-3 -75 -45 -3 c-61 -4 -90 16 -90 60 0 41 22 65 61 65 16 0 29 5 29 10 0
6 -18 10 -40 10 -33 0 -40 3 -40 19 0 36 64 42 104 10z m110 -11 l16 -22 24
23 c15 15 31 21 41 17 15 -5 15 -10 -4 -42 -26 -44 -26 -47 4 -91 13 -20 22
-40 19 -45 -11 -17 -41 -7 -54 17 -7 14 -17 25 -21 25 -5 0 -16 -11 -25 -25
-19 -29 -54 -34 -54 -7 0 9 9 28 20 42 11 14 20 32 20 40 0 8 -9 26 -20 40
-11 14 -20 31 -20 38 0 20 38 14 54 -10z m-950 -718 c17 0 18 -6 11 -67 -10
-98 -34 -154 -68 -166 -34 -11 -80 -1 -74 16 5 13 11 13 39 2 10 -4 24 1 38
15 25 25 19 39 -15 32 -39 -7 -55 14 -55 70 0 42 5 54 30 80 23 22 37 29 53
24 12 -3 30 -6 41 -6z m163 0 l26 0 -7 -67 c-10 -98 -24 -141 -51 -159 -28
-18 -76 -15 -83 5 -3 10 2 12 20 8 25 -7 68 15 68 34 0 5 -15 9 -34 9 -47 0
-60 19 -54 82 4 41 11 57 33 76 15 13 34 21 42 18 8 -3 26 -6 40 -6z m174 0
c13 0 41 -60 35 -76 -4 -10 -22 -14 -61 -14 -46 0 -55 -3 -55 -17 0 -35 16
-46 54 -40 26 4 36 2 36 -8 0 -28 -73 -35 -102 -8 -24 21 -24 100 0 129 22 28
53 45 70 39 8 -3 18 -5 23 -5z m858 -17 c12 -10 23 -31 24 -48 2 -29 1 -30
-48 -33 -50 -3 -67 -14 -58 -39 3 -8 22 -13 49 -13 34 0 42 -3 38 -15 -8 -19
-87 -21 -102 -2 -26 32 -17 103 17 138 34 33 50 36 80 12z m999 -15 c17 -17
15 -83 -3 -118 -28 -54 -97 -48 -110 9 -7 31 16 99 38 113 18 12 62 9 75 -4z
m-636 -329 c10 -91 9 -174 -4 -187 -7 -7 -31 -12 -53 -12 -60 0 -80 25 -80
101 0 66 17 93 63 95 18 0 28 7 30 20 11 65 35 55 44 -17z m1893 50 c4 -6 2
-38 -4 -72 -10 -51 -9 -71 3 -111 24 -78 -10 -118 -43 -50 -8 16 -18 47 -22
69 -8 43 6 142 23 163 13 15 35 16 43 1z m-1450 -30 c4 -11 18 -24 31 -29 31
-12 31 -28 -1 -40 -21 -8 -25 -16 -25 -50 0 -34 4 -42 26 -50 34 -13 29 -44
-8 -48 -42 -5 -68 28 -68 87 0 39 -4 52 -22 64 l-23 16 21 18 c12 10 24 26 27
36 9 23 34 22 42 -4z m3369 -15 c19 -7 22 -84 4 -102 -9 -9 -8 -15 6 -25 14
-10 15 -17 7 -41 -20 -50 -54 -24 -78 58 -11 41 -30 43 -38 4 -12 -58 -34 -98
-56 -98 -11 0 -35 11 -53 25 -37 28 -46 31 -46 12 0 -8 -11 -20 -25 -27 -27
-15 -47 -5 -51 25 -1 8 -10 35 -19 60 -16 42 -16 46 -1 70 10 15 26 25 40 25
20 0 27 -9 42 -50 l18 -50 21 38 c25 45 66 68 94 52 31 -16 59 -12 71 10 11
20 35 25 64 14z m1006 -9 c7 -8 19 -15 26 -15 8 0 14 -5 14 -11 0 -7 12 -9 35
-5 53 10 75 -9 75 -64 0 -25 -7 -55 -15 -67 -13 -18 -23 -21 -65 -18 -27 2
-54 7 -60 10 -6 4 -17 1 -25 -5 -15 -13 -26 -8 -78 33 -21 17 -14 65 13 94 9
11 23 29 29 41 14 26 33 28 51 7z m-6031 -12 c17 -14 22 -34 28 -95 l6 -78
-44 -2 c-92 -3 -103 3 -103 58 0 42 23 64 66 64 15 0 28 5 28 10 0 11 -10 13
-57 10 -22 -1 -33 3 -33 12 0 39 71 52 109 21z m180 -10 c15 -18 21 -40 21
-77 0 -65 -17 -91 -62 -91 -30 0 -33 -3 -36 -33 -3 -25 -8 -32 -20 -30 -15 3
-17 20 -20 118 -1 62 -1 119 1 125 3 6 25 11 50 13 39 1 49 -3 66 -25z m158
19 c20 -3 43 -58 43 -102 0 -51 -38 -95 -75 -88 -21 4 -24 1 -27 -26 -2 -19
-9 -32 -20 -34 -15 -3 -17 10 -20 105 -4 139 -1 148 48 147 22 0 45 -1 51 -2z
m172 -2 c22 -11 45 -64 37 -85 -4 -11 -20 -15 -56 -15 -27 0 -50 -4 -50 -9 0
-17 33 -43 49 -38 9 3 22 6 30 8 19 5 27 -31 9 -42 -27 -17 -78 -10 -103 16
-21 20 -25 34 -25 79 0 47 4 57 26 75 29 23 55 26 83 11z m178 -5 c16 -12 23
-30 28 -79 10 -92 5 -101 -55 -103 -39 -2 -55 2 -70 17 -26 26 -25 65 0 90 11
11 31 20 45 20 14 0 25 5 25 11 0 8 -12 10 -36 6 -26 -5 -37 -2 -41 10 -14 36
63 57 104 28z m349 -10 c17 -17 24 -34 22 -53 -3 -25 -7 -27 -51 -30 -39 -3
-48 -6 -45 -20 2 -12 14 -17 41 -18 48 -1 64 -15 42 -38 -25 -25 -81 -20 -110
9 -20 19 -25 34 -25 75 0 41 5 56 25 75 31 32 69 32 101 0z m4429 -5 c11 -12
22 -17 29 -11 6 5 32 12 58 15 40 6 48 4 61 -15 15 -20 17 -20 38 -5 61 43
112 4 107 -81 -2 -40 -6 -48 -24 -51 -22 -3 -37 8 -73 54 -27 34 -40 23 -18
-15 17 -29 17 -30 -15 -65 -17 -20 -38 -36 -46 -36 -9 0 -34 21 -58 47 -38 41
-45 45 -59 33 -14 -12 -18 -11 -26 1 -5 8 -9 22 -9 32 0 9 -4 17 -10 17 -5 0
-10 -8 -10 -18 0 -11 -9 -27 -20 -37 -19 -17 -20 -17 -29 6 -5 14 -5 28 0 34
5 5 9 24 9 41 0 23 8 39 26 53 33 26 46 26 69 1z m-6141 -655 c3 -8 -3 -20
-12 -27 -22 -17 -45 -123 -32 -149 6 -10 10 -32 10 -49 0 -23 5 -33 20 -37 31
-8 25 -33 -8 -33 -37 0 -52 17 -52 59 0 36 -23 71 -47 71 -22 0 -14 28 10 32
19 3 23 10 27 60 5 61 5 59 35 76 27 16 42 15 49 -3z m-1329 -63 c10 -71 15
-82 36 -82 12 0 19 -7 19 -20 0 -11 -7 -20 -15 -20 -20 0 -35 -32 -35 -73 0
-45 -24 -63 -77 -58 -21 2 -15 29 7 36 15 5 20 15 20 41 0 20 5 45 11 56 8 14
8 23 0 31 -6 6 -11 30 -11 54 0 32 -5 45 -20 53 -22 12 -27 36 -7 43 6 2 24 0
39 -5 23 -8 28 -17 33 -56z m2925 -698 c0 -8 -7 -62 -16 -118 l-16 -104 -46 0
c-25 -1 -52 4 -59 10 -20 16 -16 88 7 126 20 32 25 35 69 36 19 1 27 8 33 34
9 33 28 44 28 16z m968 -36 c28 -28 4 -137 -33 -152 -33 -12 -64 -6 -76 15
-15 30 -3 99 23 126 23 25 67 30 86 11z m-664 -14 c32 -32 11 -142 -29 -158
-53 -20 -85 4 -85 64 0 77 72 137 114 94z m-514 -4 c20 -10 40 -57 33 -77 -3
-8 -24 -13 -54 -13 -54 0 -72 -17 -48 -46 9 -11 23 -14 46 -11 24 4 33 2 33
-8 0 -19 -62 -30 -89 -16 -52 28 -30 146 32 171 29 11 26 11 47 0z m-502 -22
c7 -7 12 -33 12 -59 0 -64 -38 -112 -84 -107 -21 2 -34 11 -43 28 -16 35 -1
109 27 132 25 21 70 24 88 6z m193 -385 c0 -54 2 -108 5 -121 4 -24 0 -27 -59
-37 -31 -5 -41 -2 -62 19 -54 54 -20 183 46 174 27 -4 29 -2 29 29 0 26 4 33
20 33 19 0 20 -7 21 -97z m-1661 7 c0 -16 7 -20 30 -20 23 0 30 -5 30 -19 0
-14 -8 -21 -27 -23 -25 -3 -28 -7 -31 -46 -4 -47 10 -72 39 -72 23 0 25 -25 3
-34 -54 -21 -84 9 -84 83 0 49 -3 58 -22 66 -13 6 -23 17 -23 25 0 8 10 16 23
18 14 2 22 10 22 23 0 12 7 19 20 19 13 0 20 -7 20 -20z m1474 1 c9 -10 18
-31 19 -47 2 -28 0 -29 -50 -32 -44 -3 -53 -6 -53 -22 0 -26 34 -44 59 -30 29
15 41 12 41 -9 0 -22 -19 -31 -61 -31 -44 0 -66 15 -79 55 -14 42 -5 90 21
116 25 25 81 25 103 0z m-530 -12 c21 -16 26 -28 24 -53 -3 -30 -5 -31 -55
-34 -36 -2 -53 -7 -53 -16 0 -26 28 -38 70 -31 35 6 40 5 40 -13 0 -19 -33
-32 -82 -32 -34 0 -68 45 -68 89 0 93 63 138 124 90z m176 1 c16 -16 20 -33
20 -95 l0 -75 -64 0 c-61 0 -65 1 -74 28 -10 29 0 71 21 84 7 4 24 8 40 8 18
0 27 5 27 16 0 14 -7 16 -40 11 -33 -4 -40 -2 -40 12 0 26 9 31 52 31 25 0 45
-7 58 -20z m-529 -16 c19 -20 24 -36 24 -79 0 -65 -22 -95 -72 -95 -31 0 -33
-2 -33 -36 0 -28 -3 -35 -17 -32 -16 3 -18 19 -21 130 l-3 127 33 4 c18 2 40
5 49 5 8 1 26 -10 40 -24z m179 -2 c18 -22 21 -37 18 -79 -6 -64 -20 -83 -64
-83 -32 0 -34 -2 -34 -35 0 -28 -4 -35 -20 -35 -19 0 -20 7 -20 129 l0 128 49
2 c43 0 53 -3 71 -27z m-360 -2 c16 -16 20 -33 20 -94 l0 -73 -52 -6 c-68 -8
-98 9 -98 58 0 40 28 65 73 65 19 0 27 4 24 13 -3 7 -19 11 -46 9 -29 -2 -41
2 -41 11 0 40 85 52 120 17z m-1166 -320 c19 -7 26 -19 31 -47 12 -75 16 -84
40 -93 31 -12 32 -28 1 -39 -27 -11 -36 -29 -36 -77 0 -37 -34 -69 -67 -62
-25 5 -28 35 -5 43 27 8 36 72 26 174 -5 41 -10 55 -25 58 -26 7 -25 53 2 53
4 0 19 -4 33 -10z m-732 -427 c4 -2 10 -20 13 -41 12 -74 16 -83 40 -92 32
-12 31 -20 -5 -52 -24 -21 -30 -34 -30 -67 0 -30 -6 -44 -22 -55 -49 -34 -106
-3 -61 33 18 14 36 79 33 116 -6 75 -14 108 -31 118 -51 32 9 70 63 40z m5166
-659 c-5 -63 -28 -94 -69 -94 -49 0 -63 56 -31 120 18 37 55 53 86 37 15 -7
18 -18 14 -63z m-1806 31 c3 -3 -3 -58 -13 -123 -10 -64 -18 -118 -19 -119 0
-2 -22 -3 -48 -3 -57 0 -72 12 -72 57 0 72 46 132 91 120 21 -6 39 18 39 52 0
20 10 27 22 16z m-865 -67 c-3 -13 -11 -61 -17 -108 -15 -116 -16 -119 -49
-118 -15 1 -34 -2 -40 -6 -20 -13 -51 24 -51 61 0 75 45 131 96 119 20 -5 25
-2 30 21 10 46 13 53 25 53 7 0 9 -9 6 -22z m664 -18 c26 -14 27 -80 2 -81
-72 -3 -100 -17 -89 -45 5 -13 15 -16 51 -12 41 5 44 4 34 -13 -14 -27 -94
-27 -109 0 -42 79 39 189 111 151z m-879 -57 c12 -11 18 -30 18 -59 0 -35 -6
-49 -34 -78 -55 -59 -106 -41 -106 37 0 85 73 145 122 100z m-154 -11 c2 -8 1
-47 -3 -88 -5 -57 -10 -74 -22 -74 -12 0 -14 8 -9 38 19 113 19 112 4 112 -16
0 -33 -45 -43 -112 -3 -27 -11 -48 -16 -48 -7 0 -8 29 -3 82 6 75 6 82 -9 70
-9 -8 -19 -35 -22 -60 -10 -78 -15 -92 -30 -92 -11 0 -14 7 -11 23 3 12 10 52
16 89 13 74 14 74 99 73 28 0 46 -5 49 -13z m-386 -13 c18 -10 19 -17 13 -82
-4 -40 -11 -76 -15 -81 -14 -14 -107 -19 -116 -5 -4 7 -7 26 -6 42 1 39 35 66
80 67 27 0 33 4 30 18 -3 13 -13 17 -46 15 -45 -2 -56 12 -19 27 30 12 55 12
79 -1z m-377 -15 c23 -6 50 -57 41 -79 -3 -8 -18 -15 -33 -16 -34 -1 -86 -9
-91 -14 -2 -2 -1 -13 3 -25 6 -20 12 -22 51 -17 32 3 44 1 44 -8 0 -28 -88
-35 -114 -9 -33 33 -12 125 36 158 24 17 32 19 63 10z m-343 -36 c10 -14 1
-108 -13 -146 -6 -15 -15 -22 -24 -19 -7 3 -28 2 -45 -3 -25 -7 -35 -5 -51 11
-26 26 -24 46 10 80 20 20 39 29 61 29 25 0 31 4 28 18 -3 13 -12 16 -46 14
-33 -2 -40 1 -36 12 3 8 13 17 22 20 27 8 85 -2 94 -16z m-204 -5 c24 -22 35
-53 23 -71 -5 -8 -33 -17 -62 -20 -45 -6 -54 -10 -54 -27 0 -17 6 -20 48 -19
38 0 47 -3 45 -15 -5 -23 -77 -33 -105 -15 -32 20 -32 99 -2 138 36 45 75 56
107 29z m4192 -30 c0 -9 -7 -24 -15 -33 -29 -32 -20 -210 11 -210 18 0 18 -24
-1 -40 -26 -22 -61 11 -69 64 -5 32 -13 47 -27 51 -25 8 -24 31 1 45 14 7 20
21 20 45 0 46 15 82 37 88 34 9 43 7 43 -10z m-2882 -324 l3 -126 -48 -6 c-32
-4 -55 -1 -69 8 -39 25 -42 136 -6 169 10 8 31 16 47 18 24 2 30 8 32 28 0 14
1 29 2 33 1 5 9 7 19 5 15 -3 17 -18 20 -129z m182 111 c0 -17 -7 -20 -45 -20
-41 0 -45 -2 -45 -25 0 -22 4 -25 40 -25 33 0 40 -3 40 -20 0 -17 -7 -20 -40
-20 l-40 0 0 -60 c0 -52 -3 -60 -19 -60 -15 0 -19 10 -25 53 -8 66 -8 161 0
181 5 12 21 16 70 16 57 0 64 -2 64 -20z m-730 -30 c0 -13 -9 -22 -25 -26 -14
-3 -25 -10 -25 -15 0 -5 11 -9 25 -9 33 0 35 -37 3 -42 -21 -3 -23 -9 -26 -80
-3 -70 -5 -78 -22 -78 -18 0 -20 8 -21 63 -1 34 -1 65 0 70 1 4 -10 12 -24 17
-30 12 -33 36 -4 45 11 4 25 20 31 35 9 27 24 35 71 39 11 1 17 -6 17 -19z
m885 -4 c16 -11 20 -30 23 -91 3 -58 1 -80 -9 -86 -25 -16 -28 -10 -31 63 -3
62 -6 73 -22 76 -27 6 -36 -15 -36 -85 0 -57 -2 -63 -20 -63 -20 0 -21 5 -18
93 l3 92 27 0 c15 1 30 4 34 8 11 11 28 8 49 -7z m-1247 -130 c1 -65 -2 -123
-7 -130 -5 -6 -31 -12 -58 -14 -64 -4 -85 18 -91 91 -4 46 -1 57 21 82 16 19
35 30 53 30 25 1 29 6 32 34 3 27 7 32 25 29 21 -3 22 -8 25 -122z m714 87
c10 -9 18 -30 18 -48 0 -28 -4 -33 -31 -39 -17 -3 -42 -6 -55 -6 -28 0 -30 -7
-7 -32 18 -20 48 -24 58 -8 11 17 35 11 35 -10 0 -24 -28 -40 -74 -40 -48 0
-76 37 -76 99 0 61 31 101 79 101 19 0 43 -7 53 -17z m-917 -58 c20 -20 25
-34 25 -78 0 -75 -25 -107 -85 -107 -55 0 -68 16 -73 90 -4 55 -2 61 26 90 37
37 74 39 107 5z m-168 -3 c19 -26 17 -181 -2 -189 -9 -3 -18 -4 -20 -1 -7 7
-13 50 -14 96 -1 26 -5 41 -11 37 -5 -3 -10 -35 -10 -71 0 -57 -2 -64 -20 -64
-18 0 -20 7 -20 70 0 40 -4 70 -10 70 -6 0 -10 -30 -10 -70 0 -56 -3 -72 -16
-77 -25 -9 -34 16 -34 103 0 87 6 99 50 106 67 9 105 6 117 -10z m4453 -430
c43 -6 53 -22 47 -76 -3 -38 -11 -55 -31 -73 -24 -21 -75 -31 -88 -18 -5 5 20
181 29 205 4 11 8 8 12 -10 5 -17 15 -26 31 -28z m-1096 -175 c-1 -43 -3 -80
-5 -82 -2 -2 -26 -5 -53 -7 -55 -3 -73 12 -62 55 7 28 50 57 86 57 11 0 20 4
20 9 0 16 -22 25 -52 23 -15 -1 -28 2 -28 7 0 14 21 20 60 18 l35 -2 -1 -78z
m-674 13 c11 -11 20 -31 20 -44 0 -26 -21 -36 -76 -36 -36 0 -49 -20 -30 -46
11 -15 18 -15 46 -5 37 12 45 9 37 -14 -7 -15 -69 -21 -101 -9 -22 9 -22 96 1
130 29 45 72 55 103 24z m-342 -22 c7 -7 12 -27 12 -44 0 -32 -1 -33 -55 -39
-42 -6 -55 -11 -55 -24 0 -29 19 -39 58 -30 42 9 50 6 32 -16 -15 -18 -91 -20
-108 -3 -27 27 3 146 40 161 24 10 64 7 76 -5z m-353 -33 c27 -26 33 -63 13
-70 -7 -2 -35 -6 -61 -10 -42 -6 -48 -9 -45 -28 3 -19 9 -22 50 -21 42 0 46
-2 37 -18 -7 -13 -22 -18 -55 -18 -39 0 -46 3 -55 27 -18 47 9 124 52 148 34
18 37 18 64 -10z m-1140 -69 l-7 -61 34 33 c19 17 42 32 53 32 16 0 14 -5 -13
-33 -37 -38 -39 -51 -12 -92 24 -36 25 -55 5 -55 -8 0 -24 19 -36 41 -23 45
-31 43 -49 -13 -12 -41 -30 -51 -30 -18 0 30 30 221 36 231 3 5 10 7 16 3 6
-4 7 -29 3 -68z m789 48 c9 -8 16 -31 16 -50 0 -33 -1 -34 -43 -34 -24 0 -52
-6 -62 -14 -17 -12 -18 -16 -5 -31 11 -13 24 -16 57 -11 48 6 59 -9 17 -24
-37 -15 -80 -12 -94 5 -18 22 -8 110 16 136 34 38 74 48 98 23z m-1081 -163
c-1 -46 -3 -84 -5 -86 -2 -1 -29 -6 -60 -9 -56 -7 -58 -6 -70 19 -18 39 8 76
66 95 62 20 63 45 1 37 -28 -4 -45 -3 -45 4 0 17 61 37 89 29 26 -7 26 -8 24
-89z m-171 5 c-4 -78 -18 -124 -32 -110 -7 7 -7 29 0 63 13 70 13 94 -2 89
-13 -5 -26 -41 -36 -107 -4 -24 -13 -46 -21 -49 -11 -4 -12 6 -7 49 12 89 11
92 -1 96 -7 3 -15 -8 -18 -24 -23 -111 -33 -139 -45 -126 -9 10 13 161 26 173
12 11 40 16 94 15 l45 0 -3 -69z m1273 -238 c10 -147 9 -151 -45 -160 -56 -10
-74 -4 -88 28 -35 74 0 164 63 164 29 0 34 3 33 23 -1 38 2 47 16 47 11 0 16
-24 21 -102z m-202 4 c8 -9 21 -30 27 -46 13 -36 2 -46 -57 -46 -46 0 -61 -13
-42 -36 10 -12 23 -14 56 -9 33 5 43 3 43 -7 0 -26 -24 -38 -71 -38 -60 0 -79
23 -79 93 0 40 5 53 29 78 33 33 70 37 94 11z m-357 -37 c23 -23 25 -31 22
-97 -3 -70 -4 -73 -28 -75 -14 -2 -40 -6 -59 -9 -41 -8 -61 12 -61 61 0 38 24
62 65 67 43 4 27 23 -17 21 -32 -1 -38 1 -38 18 0 41 79 51 116 14z m-172 -14
c11 -12 16 -31 14 -53 -3 -31 -6 -33 -43 -36 -63 -4 -71 -9 -50 -32 19 -21 50
-26 60 -10 11 17 35 11 35 -10 0 -41 -94 -56 -130 -20 -31 31 -28 118 5 154
30 32 83 36 109 7z m-188 -12 c15 -16 19 -36 19 -85 0 -72 -13 -92 -66 -103
-26 -5 -33 -12 -32 -27 4 -27 -12 -48 -31 -41 -14 6 -16 24 -14 134 l3 128 30
6 c54 12 72 9 91 -12z m-796 -13 c6 -17 18 -26 37 -28 40 -4 42 -33 3 -47 -30
-10 -31 -13 -28 -58 3 -44 5 -48 31 -51 23 -3 28 -8 25 -25 -2 -17 -11 -23
-39 -25 -52 -4 -69 17 -69 85 0 46 -3 56 -20 60 -11 3 -20 14 -20 24 0 10 9
23 20 29 11 6 20 19 20 30 0 15 8 23 28 29 1 1 7 -10 12 -23z m628 -17 c8 -14
11 -46 9 -78 -3 -45 -9 -59 -32 -78 -16 -14 -36 -23 -46 -20 -14 4 -19 -2 -21
-27 -2 -23 -8 -32 -25 -34 -23 -3 -23 -3 -23 127 0 72 3 131 8 132 34 3 65 9
69 13 10 10 49 -12 61 -35z m-222 15 c30 -8 44 -45 44 -119 0 -65 -5 -75 -43
-80 -12 -1 -34 -6 -49 -10 -50 -13 -86 53 -58 105 6 11 29 24 51 30 30 8 39
14 31 22 -8 8 -19 8 -37 0 -43 -20 -60 5 -28 40 16 18 50 23 89 12z m4015
-415 c14 -26 5 -91 -17 -125 -11 -16 -26 -24 -46 -24 -24 0 -32 -6 -41 -30
-16 -42 -27 -38 -20 8 26 173 27 176 53 183 44 12 59 10 71 -12z m-161 -25
c12 -31 -5 -106 -29 -128 -9 -8 -29 -16 -46 -18 -24 -2 -31 -8 -33 -30 -4 -30
-22 -39 -22 -10 1 56 29 195 41 203 8 5 29 9 47 9 26 0 34 -5 42 -26z m-1130
-31 c-1 -10 -9 -65 -19 -123 l-18 -105 -42 -6 c-67 -9 -85 24 -61 112 13 46
33 63 74 64 26 0 32 4 34 25 2 14 5 31 7 38 6 18 25 15 25 -5z m465 -20 c13
-13 16 -28 13 -65 -6 -59 -38 -98 -79 -98 -51 0 -65 64 -27 131 28 49 64 62
93 32z m-1003 -107 c14 -20 8 -81 -11 -116 -12 -24 -29 -38 -51 -44 -29 -9
-35 -7 -52 14 -34 42 -6 139 45 160 25 10 58 3 69 -14z m-174 -8 c19 -19 14
-99 -8 -135 -15 -25 -27 -32 -57 -35 -33 -3 -39 -7 -43 -32 -4 -26 -30 -51
-30 -29 1 34 32 219 38 224 7 7 39 15 73 18 8 0 20 -4 27 -11z m-168 -29 c15
-27 3 -96 -21 -131 -14 -19 -30 -28 -57 -30 -34 -3 -37 -6 -40 -35 -2 -20 -9
-33 -17 -33 -10 0 -12 9 -9 33 3 17 11 70 17 117 11 77 14 85 37 91 49 14 79
10 90 -12z m-1143 -55 c-6 -34 -5 -36 19 -30 13 4 34 2 45 -5 19 -10 20 -17
14 -72 -9 -81 -13 -97 -31 -97 -16 0 -16 5 -5 75 9 54 6 75 -14 75 -23 0 -46
-38 -55 -94 -10 -65 -18 -82 -32 -68 -5 5 -3 41 6 93 9 46 18 101 21 122 4 25
11 37 22 37 12 0 14 -7 10 -36z m2168 -105 c4 -6 -3 -21 -14 -33 -19 -20 -22
-36 -23 -102 -1 -88 7 -124 27 -124 26 0 26 -20 0 -32 -34 -15 -55 4 -62 61
-5 33 -11 45 -29 52 -28 10 -31 27 -6 36 25 10 32 23 32 68 0 45 6 57 35 73
25 14 32 15 40 1z m-510 -154 c48 -47 28 -84 -46 -85 -33 0 -41 -8 -28 -31 10
-20 54 -26 64 -9 11 18 25 10 25 -14 0 -20 -6 -25 -40 -31 -51 -9 -74 -1 -88
31 -27 59 -7 135 42 154 34 14 45 12 71 -15z m-168 -25 c8 -15 12 -52 11 -90
-3 -53 -6 -65 -20 -68 -15 -3 -18 5 -18 51 0 67 -7 87 -30 87 -21 0 -30 -27
-30 -97 0 -39 -4 -53 -14 -53 -18 0 -29 63 -24 135 3 44 6 50 25 50 11 0 25 4
29 8 16 16 59 2 71 -23z m-177 -12 c25 -27 28 -112 5 -145 -19 -27 -79 -41
-100 -23 -38 32 -38 128 1 171 23 26 69 24 94 -3z m-350 -37 c0 -15 -8 -21
-32 -23 -43 -4 -46 -24 -5 -32 74 -14 67 -108 -9 -122 -43 -8 -64 0 -64 25 0
17 6 20 37 18 29 -1 38 2 41 16 3 12 -3 17 -22 17 -25 0 -55 22 -57 43 -5 48
23 77 73 77 31 0 38 -4 38 -19z m-162 -117 c-4 -124 -17 -147 -82 -142 -29 2
-42 8 -44 21 -3 13 4 17 31 17 19 0 40 7 47 15 11 13 7 15 -29 15 -39 0 -43 3
-57 37 -18 42 -13 92 11 130 13 19 23 24 50 22 19 -2 37 0 41 4 4 4 14 1 21
-5 12 -9 14 -35 11 -114z m-595 86 c3 -14 14 -20 31 -20 19 0 26 -5 26 -20 0
-13 -7 -20 -20 -20 -27 0 -40 -30 -33 -74 5 -31 11 -38 35 -43 41 -8 34 -37
-10 -41 -47 -5 -62 12 -62 68 0 61 -7 80 -31 80 -25 0 -24 30 1 37 11 3 20 13
20 22 0 35 34 44 43 11z m412 -10 c13 -26 23 -160 11 -160 -2 0 -11 -3 -20 -6
-12 -5 -16 6 -18 62 -2 50 -7 70 -20 78 -26 16 -33 2 -38 -77 -4 -55 -9 -72
-20 -72 -12 0 -15 17 -15 95 l0 95 27 0 c15 1 30 4 34 8 16 16 44 5 59 -23z
m-597 -8 c3 -17 10 -22 33 -22 23 0 30 -4 27 -17 -2 -9 -14 -20 -28 -23 -22
-5 -25 -12 -28 -54 -3 -45 -2 -48 28 -59 39 -15 36 -41 -6 -45 -47 -5 -64 19
-64 85 0 46 -3 56 -20 60 -11 3 -20 13 -20 23 0 10 9 20 20 23 11 3 20 14 20
24 0 39 33 43 38 5z m-123 -58 c10 -11 15 -29 13 -53 -3 -35 -4 -36 -48 -39
-54 -4 -67 -14 -45 -36 18 -18 51 -21 60 -6 11 17 35 11 35 -9 0 -24 -17 -37
-58 -45 -43 -8 -70 7 -87 47 -18 43 -5 115 25 139 28 22 83 23 105 2z m-195
-9 c17 -20 4 -49 -19 -42 -10 2 -25 1 -32 -4 -12 -8 -11 -11 1 -19 8 -5 23
-10 32 -10 24 0 41 -36 33 -71 -11 -48 -96 -79 -124 -45 -19 23 -3 45 32 43
44 -3 49 16 8 29 -38 12 -54 42 -45 80 11 44 88 70 114 39z m1970 -565 c42
-42 13 -80 -61 -80 -24 0 -29 -4 -29 -25 0 -31 18 -39 55 -25 32 12 43 7 26
-14 -15 -18 -71 -26 -93 -14 -13 6 -18 21 -18 54 0 92 71 153 120 104z m1918
-94 l3 -47 31 26 c40 34 59 19 28 -23 l-23 -31 31 -42 c17 -23 29 -46 26 -51
-10 -15 -49 -8 -62 12 -17 27 -32 25 -32 -5 0 -19 -5 -25 -23 -25 -22 0 -22 3
-26 111 -2 85 1 114 11 120 23 15 33 3 36 -45z m-2631 28 c28 -8 46 -56 30
-78 -7 -8 -31 -16 -57 -18 -41 -3 -45 -5 -45 -28 0 -23 4 -25 43 -25 46 0 51
-14 10 -29 -36 -13 -75 0 -82 26 -10 40 6 98 34 128 30 32 33 33 67 24z m5327
-33 c-1 -25 4 -26 30 -6 30 23 36 18 36 -28 0 -23 7 -52 15 -64 14 -20 14 -23
-5 -33 -12 -6 -29 -10 -38 -7 -9 2 -29 -2 -43 -9 l-25 -13 2 87 c2 108 1 105
17 99 6 -2 12 -14 11 -26z m-64 -9 c0 -5 -12 -19 -26 -33 -55 -51 -52 -89 8
-89 36 0 33 -18 -5 -40 -24 -13 -28 -13 -53 6 -15 11 -28 28 -30 38 -5 34 -19
36 -57 10 -40 -27 -41 -48 -1 -38 29 7 31 -6 4 -31 -15 -14 -29 -16 -63 -11
-24 4 -56 2 -70 -3 -27 -11 -27 -10 -27 39 0 38 -4 50 -15 50 -17 0 -30 -41
-22 -70 4 -17 -16 -40 -36 -40 -3 0 -5 43 -6 95 -1 93 8 120 32 96 6 -6 21
-11 33 -11 36 0 54 -11 54 -32 0 -18 5 -16 40 16 49 44 75 46 98 6 17 -29 32
-39 32 -21 0 21 59 71 84 71 14 0 26 -4 26 -8z m-5592 -14 c29 -29 8 -120 -36
-155 -20 -16 -64 -17 -80 -1 -27 27 -4 134 35 157 24 14 66 14 81 -1z m2472
-13 c0 -21 5 -25 28 -25 50 0 57 -12 57 -97 0 -71 -2 -78 -20 -78 -17 0 -20 8
-23 55 -4 74 -8 86 -27 70 -10 -8 -15 -31 -15 -72 0 -44 -4 -60 -15 -65 -9 -3
-18 -3 -20 -1 -8 7 -18 207 -11 223 3 8 15 15 26 15 15 0 20 -7 20 -25z
m-2634 -49 c-11 -88 -19 -116 -30 -116 -9 0 -10 17 -3 70 6 39 7 73 3 77 -14
14 -28 -17 -38 -86 -7 -49 -15 -71 -24 -71 -17 0 -17 11 -4 80 5 29 7 56 4 62
-13 20 -34 -17 -40 -72 -6 -58 -18 -89 -29 -79 -7 7 15 161 24 172 4 4 29 9
56 12 27 3 51 7 53 10 3 3 12 -1 19 -7 10 -8 13 -24 9 -52z m2889 -1 c8 -22 6
-29 -10 -41 -10 -8 -31 -14 -46 -14 -33 0 -45 -15 -28 -36 12 -15 24 -15 62 1
13 5 17 2 17 -14 0 -28 -66 -49 -99 -32 -46 25 -54 104 -16 150 43 50 99 44
120 -14z m-3079 10 c27 -42 16 -59 -49 -69 -51 -7 -57 -11 -57 -32 0 -31 21
-39 60 -26 24 9 30 8 30 -3 0 -8 -18 -19 -41 -25 -54 -15 -79 5 -79 63 0 91
94 156 136 92z m5066 -62 c21 -24 28 -124 9 -146 -19 -23 -77 -32 -107 -17
-32 18 -23 55 24 98 l35 32 -32 0 c-38 0 -38 18 0 37 33 17 53 16 71 -4z
m-152 -13 c4 0 13 -14 21 -31 11 -28 11 -33 -7 -46 -10 -8 -29 -16 -41 -20
-14 -3 -23 -13 -23 -23 0 -16 6 -18 35 -13 41 7 46 -8 13 -31 -28 -20 -72 -20
-88 -1 -7 8 -16 15 -21 15 -10 0 -80 -61 -107 -94 -22 -27 -32 -18 -33 32 0
26 -4 55 -8 65 -5 15 -9 12 -19 -17 -8 -21 -26 -42 -47 -55 -19 -11 -35 -27
-35 -35 0 -15 -27 -29 -41 -20 -5 3 -9 49 -9 103 0 113 6 124 73 125 38 1 44
-2 59 -34 17 -33 18 -33 18 -9 0 33 18 54 58 68 39 12 72 0 72 -26 0 -13 8 -9
33 14 35 34 55 44 75 37 8 -2 17 -4 22 -4z m-441 -74 c17 -21 25 -124 11 -141
-19 -23 -86 -38 -111 -25 -33 18 -23 79 18 105 42 26 41 37 -2 29 -31 -5 -34
-4 -29 11 14 36 89 50 113 21z m-298 -53 c5 -15 9 -52 7 -82 -3 -49 -6 -56
-25 -59 -21 -3 -23 0 -23 52 0 30 -4 57 -9 61 -16 9 -31 -30 -31 -78 0 -41
-10 -57 -36 -57 -2 0 -4 38 -4 84 0 83 0 85 28 94 52 19 82 15 93 -15z m-511
9 c0 -5 12 -14 27 -21 l27 -12 -29 -26 -28 -26 32 -26 c39 -32 41 -68 6 -101
-14 -13 -25 -29 -25 -37 0 -12 -7 -15 -27 -12 -5 1 -7 5 -5 10 1 6 -11 15 -28
21 -35 12 -35 30 1 38 17 5 23 12 21 26 -2 10 -8 21 -13 22 -19 7 -39 34 -39
53 0 11 15 38 33 59 31 38 47 49 47 32z m-2950 -132 c0 -107 -2 -119 -17 -118
-10 0 -32 -3 -50 -7 -28 -6 -33 -4 -47 23 -37 71 4 161 66 148 27 -5 28 -4 28
40 0 28 4 43 10 39 6 -4 10 -57 10 -125z m2440 25 c0 -50 8 -55 35 -25 10 11
27 20 37 20 18 0 17 -2 -3 -38 l-22 -38 27 -41 c16 -23 25 -47 21 -52 -11 -19
-41 -12 -55 14 -17 32 -28 32 -32 -2 -2 -20 -9 -29 -25 -31 -23 -3 -23 -2 -23
117 0 114 1 121 20 121 17 0 20 -7 20 -45z m-3070 -27 c0 -25 2 -26 35 -21 51
8 65 -8 65 -77 0 -67 -14 -85 -77 -93 -41 -5 -43 -4 -44 21 -1 15 -3 61 -5
102 -5 86 2 133 17 109 5 -7 9 -26 9 -41z m2580 -19 c0 -28 2 -30 28 -25 15 3
34 2 42 -3 18 -12 33 -150 17 -169 -20 -24 -32 -5 -37 59 -4 48 -9 64 -20 64
-11 0 -16 -17 -20 -70 -5 -63 -7 -70 -27 -73 -23 -3 -23 -2 -23 116 0 117 3
128 33 131 4 1 7 -13 7 -30z m241 -20 c13 -13 19 -30 17 -47 -3 -24 -9 -28
-50 -36 -48 -9 -59 -24 -34 -45 10 -8 21 -8 40 -1 48 18 61 7 30 -24 -16 -17
-80 -21 -102 -8 -18 12 -32 69 -25 103 6 33 55 79 84 79 10 0 28 -9 40 -21z
m-3422 -66 c-1 -46 -23 -157 -36 -178 -9 -16 -13 -17 -27 -6 -9 7 -16 20 -16
27 0 8 -4 14 -10 14 -5 0 -10 -6 -10 -14 0 -8 -7 -22 -16 -31 -14 -14 -19 -14
-29 -3 -17 17 -47 160 -39 181 12 32 30 17 44 -34 13 -48 15 -50 23 -25 11 32
40 34 54 4 9 -20 10 -18 17 22 10 66 47 100 45 43z m2082 -149 c15 -49 28 -97
28 -106 1 -26 -16 -22 -25 5 -9 29 -20 35 -50 29 -17 -3 -30 -16 -39 -39 -8
-19 -19 -32 -25 -28 -6 4 -7 13 -1 23 5 9 17 55 26 102 30 141 47 143 86 14z
m2539 56 c0 -42 9 -50 30 -25 12 14 50 21 50 9 0 -3 -7 -18 -17 -34 -15 -26
-15 -30 6 -64 22 -35 44 -46 56 -26 3 6 17 10 31 10 35 0 29 19 -12 36 -31 13
-35 18 -32 46 4 38 54 74 88 63 29 -9 25 -25 -10 -38 -38 -14 -38 -20 3 -38
36 -16 47 -52 24 -84 -11 -14 -32 -21 -88 -26 -66 -6 -76 -5 -96 13 l-21 20
-4 -24 c-2 -15 -11 -24 -25 -26 -23 -3 -23 -2 -23 112 0 109 1 116 20 116 17
0 20 -7 20 -40z m-470 -51 c0 -29 2 -30 29 -24 46 10 61 -14 61 -96 0 -54 -4
-71 -15 -76 -23 -8 -26 -1 -32 66 -3 34 -10 61 -15 61 -15 0 -29 -52 -26 -95
2 -35 0 -40 -20 -43 -22 -3 -22 -2 -22 111 0 112 3 123 33 126 4 1 7 -13 7
-30z m-2790 6 c0 -8 11 -17 25 -21 32 -8 34 -41 3 -46 -33 -4 -35 -36 -4 -47
36 -14 51 -46 36 -81 -7 -16 -18 -31 -26 -34 -8 -3 -21 -20 -29 -38 l-13 -33
-11 27 c-6 16 -19 28 -33 30 -15 2 -23 10 -23 23 0 16 6 20 28 18 22 -1 27 2
27 23 0 13 -4 24 -10 24 -19 0 -50 40 -50 66 0 16 11 36 30 52 17 15 30 32 30
39 0 7 5 13 10 13 6 0 10 -7 10 -15z m3018 -21 c14 -10 22 -26 22 -44 0 -29
-3 -31 -62 -44 -30 -7 -38 -33 -12 -43 8 -3 26 -1 39 5 18 8 26 8 31 0 11 -17
-34 -48 -71 -48 -46 0 -70 31 -69 88 1 38 6 50 33 74 36 32 57 35 89 12z
m-3712 -95 c3 -185 2 -179 29 -179 18 0 25 -5 25 -20 0 -20 -23 -27 -100 -33
-29 -2 -35 1 -35 18 0 13 8 21 23 23 20 3 22 9 22 57 0 45 -3 53 -21 58 -28 7
-21 41 9 45 18 3 21 8 16 27 -3 13 -3 29 1 35 13 21 30 3 31 -31z m2925 -25
c6 -8 14 -43 16 -78 6 -72 1 -78 -70 -91 -47 -9 -67 6 -67 50 0 36 21 59 63
69 40 9 23 29 -18 22 -39 -8 -52 5 -27 27 31 27 80 28 103 1z m-168 -16 c9 -7
20 -27 23 -45 6 -30 5 -32 -32 -38 -59 -10 -66 -13 -62 -32 4 -19 38 -23 71
-8 13 5 17 2 17 -14 0 -23 -33 -41 -75 -41 -66 0 -90 107 -36 161 31 31 66 37
94 17z m-157 -29 c14 -15 19 -36 19 -74 0 -60 -21 -92 -64 -97 -21 -2 -27 -9
-29 -36 -3 -25 -8 -32 -20 -30 -15 3 -17 20 -20 120 l-3 117 33 10 c50 14 63
13 84 -10z m-156 -39 c14 -26 12 -90 -3 -119 -6 -13 -28 -30 -47 -36 -25 -9
-35 -18 -35 -33 0 -12 -6 -27 -12 -33 -20 -20 -28 17 -28 130 l0 104 40 12
c44 13 69 6 85 -25z m-176 -6 c10 -9 16 -34 17 -62 0 -26 2 -54 4 -63 5 -30
-11 -40 -70 -42 -55 -2 -58 -1 -68 27 -12 36 17 79 58 86 16 3 27 10 24 15 -4
10 -18 11 -54 4 -28 -6 -31 25 -3 39 34 16 74 14 92 -4z m-334 -44 c16 -16 20
-33 20 -95 0 -68 -2 -75 -20 -75 -18 0 -20 7 -20 65 0 51 -4 67 -16 72 -24 9
-34 -15 -34 -84 0 -56 -2 -63 -20 -63 -19 0 -20 7 -20 90 0 87 1 90 23 90 12
0 29 5 37 10 21 14 27 13 50 -10z m-540 -14 c0 -8 10 -16 23 -18 12 -2 22 -10
22 -18 0 -8 -10 -16 -22 -18 -28 -4 -34 -52 -7 -52 9 0 23 -8 30 -17 22 -29
16 -63 -16 -93 -16 -15 -30 -35 -30 -44 0 -22 -17 -20 -23 3 -2 11 -15 21 -28
23 -34 4 -38 38 -5 38 35 0 35 35 1 62 -17 13 -25 29 -25 49 0 19 9 37 25 51
14 12 25 28 25 35 0 7 7 13 15 13 8 0 15 -6 15 -14z m-484 -94 c47 -74 9 -219
-54 -207 -9 2 -20 4 -23 4 -14 2 -29 57 -29 110 0 44 5 65 21 85 24 31 69 35
85 8z m-901 -182 c7 -108 7 -110 31 -110 17 0 24 -6 24 -19 0 -26 -5 -28 -79
-37 -62 -7 -63 -7 -59 17 2 16 11 25 26 27 19 3 22 9 22 54 0 41 -3 51 -20 55
-11 3 -20 13 -20 23 0 10 9 20 20 23 14 4 20 14 20 34 0 29 7 43 20 43 4 0 11
-49 15 -110z m377 44 c15 -4 29 -13 32 -21 6 -14 -13 -53 -25 -53 -4 0 -33
-16 -65 -35 -47 -28 -60 -32 -66 -21 -13 23 0 41 44 64 l42 21 -28 10 c-15 6
-34 11 -42 11 -17 0 -28 24 -21 45 5 13 12 12 54 -1 26 -8 60 -17 75 -20z
m-1858 -526 c2 -7 8 -35 12 -63 7 -40 13 -50 28 -50 28 0 30 -20 6 -53 -12
-17 -26 -52 -31 -78 -5 -29 -17 -56 -30 -66 -27 -23 -36 -23 -49 2 -8 16 -6
26 11 49 20 27 21 38 16 110 -4 49 -13 91 -23 106 -9 14 -14 32 -10 40 7 18
65 20 70 3z m3106 -409 c0 -41 -21 -165 -32 -186 -15 -31 -98 -58 -98 -33 0 6
13 10 28 10 34 0 52 16 52 47 0 21 -2 22 -20 11 -52 -33 -78 70 -33 130 18 24
31 29 96 41 4 0 7 -8 7 -20z m-514 -95 c10 -41 -8 -105 -36 -125 -64 -46 -112
-11 -91 66 15 57 44 85 86 85 29 0 36 -4 41 -26z m-2516 -677 c0 -7 -6 -19
-12 -26 -10 -11 -10 -14 0 -18 18 -7 14 -38 -8 -58 -16 -15 -20 -31 -20 -84 0
-74 -9 -95 -36 -89 -15 3 -20 16 -26 68 -4 35 -13 77 -19 92 -10 24 -9 31 5
41 9 7 22 23 29 37 19 38 87 67 87 37z m176 -41 c16 -12 19 -27 19 -103 0 -81
-2 -88 -20 -88 -17 0 -21 9 -26 51 -4 29 -10 58 -14 65 -14 21 -35 -21 -35
-70 0 -54 -12 -76 -34 -68 -13 5 -16 22 -15 84 1 97 7 113 50 128 46 17 52 17
75 1z m7510 -181 c2 -83 2 -83 -26 -95 -39 -16 -64 -9 -68 18 -4 28 -23 24
-39 -9 -25 -51 -89 -63 -100 -19 -7 26 -27 21 -31 -7 -2 -12 -10 -24 -18 -27
-17 -7 -18 6 -2 22 9 9 9 12 0 12 -9 0 -10 5 -3 19 6 10 8 21 5 24 -3 3 4 10
15 17 12 6 21 17 21 25 0 25 38 55 69 55 21 0 32 -6 36 -20 9 -27 22 -25 38 5
13 25 87 78 97 69 2 -3 5 -43 6 -89z m-716 -94 c5 -11 10 -46 10 -79 l0 -59
-46 -13 c-43 -12 -48 -12 -60 5 -27 36 -12 75 36 95 41 17 38 34 -5 27 -40 -7
-45 5 -13 27 31 22 65 20 78 -3z m-432 -124 l3 -106 -38 -10 c-21 -6 -43 -11
-50 -11 -20 0 -33 35 -33 89 0 53 14 75 57 92 13 5 23 17 23 27 0 22 10 34 24
29 7 -2 12 -46 14 -110z m140 71 c7 -7 12 -40 12 -80 l0 -67 -42 -12 c-52 -13
-72 -3 -76 38 -2 23 3 36 24 52 15 11 33 21 41 21 8 0 13 6 10 13 -2 7 -17 11
-35 9 -35 -4 -42 11 -14 27 23 14 65 14 80 -1z m-584 -130 c9 -37 7 -134 -4
-164 -6 -15 -18 -33 -28 -40 -24 -19 -72 -18 -72 1 0 9 9 15 24 15 24 0 51 22
39 33 -3 4 -16 4 -28 1 -51 -13 -76 97 -34 150 28 35 93 38 103 4z m-6896 -67
c8 -30 20 -60 28 -66 21 -15 -17 -161 -51 -195 -23 -23 -26 -23 -42 -8 -15 16
-15 21 -2 60 14 44 15 93 4 206 l-7 64 29 -4 c25 -3 29 -9 41 -57z m6128 -86
c25 -38 15 -58 -34 -68 -37 -7 -43 -12 -40 -30 3 -23 25 -27 61 -12 13 5 17 2
17 -13 0 -23 -18 -32 -65 -32 -42 0 -55 21 -55 85 0 35 6 51 25 70 31 32 70
32 91 0z m1368 -17 c3 -13 6 -60 6 -106 l0 -83 -35 -15 c-43 -18 -50 -18 -69
2 -18 18 -22 104 -6 134 5 10 23 23 40 28 23 8 30 17 30 36 0 32 25 35 34 4z
m-752 -146 c3 -10 6 -60 7 -110 2 -101 4 -98 -74 -118 -31 -8 -49 25 -48 91 1
40 5 53 27 72 15 13 34 23 42 23 9 0 14 11 14 30 0 33 24 42 32 12z m-145
-120 c12 -29 13 -44 4 -73 -13 -42 -25 -54 -63 -63 -39 -9 -58 15 -58 75 0 58
13 87 43 98 34 13 58 1 74 -37z m-158 4 c17 -21 27 -141 12 -151 -19 -11 -24
0 -29 60 -6 76 -20 69 -24 -12 -4 -85 -22 -89 -26 -5 -4 82 -22 80 -22 -3 0
-49 -3 -65 -14 -65 -18 0 -27 135 -11 157 10 13 55 29 91 32 6 1 17 -5 23 -13z
m-475 -102 c11 -11 16 -35 16 -82 l0 -67 -40 -13 c-68 -21 -80 -13 -80 46 1
35 18 57 53 66 40 10 34 30 -7 22 -42 -8 -54 7 -24 28 29 20 62 20 82 0z
m-454 -132 l0 -118 -42 -11 c-23 -6 -47 -9 -54 -6 -19 7 -27 40 -27 98 1 41 5
53 28 72 14 13 31 20 37 17 13 -8 28 14 28 44 0 13 6 22 15 22 12 0 15 -20 15
-118z m148 61 c6 -10 12 -45 12 -80 0 -43 -4 -65 -12 -67 -7 -2 -28 -8 -46
-14 -42 -14 -60 -7 -69 26 -10 42 18 80 71 97 15 4 16 9 8 17 -9 9 -18 9 -36
0 -35 -16 -46 5 -16 30 27 22 67 17 88 -9z"/>
</g>
</svg>
